{"title":"Linkin Park Live at Rock in Rio Lisbon 2012 1080i HDTV MPEG2 EFO","uid":9655099,"size":9609040716,"categoryP":"video","categoryS":"music_videos","magnet":"?xt=urn:btih:e4f2016b6de94e4df98415863e500188e062d033&amp;dn=Linkin+Park+Live+at+Rock+in+Rio+Lisbon+2012+1080i+HDTV+MPEG2+EFO&amp;tr=udp%3A%2F%2Ftracker.openbittorrent.com%3A80&amp;tr=udp%3A%2F%2Fopen.demonii.com%3A1337&amp;tr=udp%3A%2F%2Ftracker.coppersurfer.tk%3A6969&amp;tr=udp%3A%2F%2Fexodus.desync.com%3A6969","seeders":1,"leechers":1,"uploader":"GeorgeHug","files":2,"time":1393170704,"description":"Linkin.Park.Live.at.Rock.in.Rio.Lisbon.2012.1080i.HDTV.MPEG2-EFOi\nSource: DVB-S\n\nSetlist:\n\nA Place for My Head\nGiven Up\nFaint\nWith You\nRunaway\nFrom the Inside\nSomewhere I Belong\nNumb\nLies Greed Misery\nPoints of Authority\nWaiting for the End\nBreaking the Habit\nLeave Out All the Rest / Shadow Of The Day / Iridescent\nThe Catalyst\nBurn It Down\nWhat I've Done\nCrawling\nNew Divide\nIn the End\nBleed It Out (Sabotage bridge)\nPapercut\nOne Step Closer \n\n\nMedia Info:\n\nGeneral\nID                                       : 1 (0x1)\nComplete name                            : Linkin.Park.Live.at.Rock.in.Rio.Lisbon.2012.1080i.HDTV.MPEG2-EFOi.ts\nFormat                                   : MPEG-TS\nFile size                                : 8.95 GiB\nDuration                                 : 1h 31mn\nOverall bit rate mode                    : Variable\nOverall bit rate                         : 13.9 Mbps\n\nVideo\nID                                       : 308 (0x134)\nMenu ID                                  : 1 (0x1)\nFormat                                   : MPEG Video\nFormat version                           : Version 2\nFormat profile                           : 4:2:2@High\nFormat settings, BVOP                    : Yes\nFormat settings, Matrix                  : Custom\nFormat settings, GOP                     : M=3, N=12\nCodec ID                                 : 2\nDuration                                 : 1h 31mn\nBit rate                                 : 12.9 Mbps\nMaximum bit rate                         : 13.3 Mbps\nWidth                                    : 1 920 pixels\nHeight                                   : 1 080 pixels\nDisplay aspect ratio                     : 16:9\nFrame rate                               : 25.000 fps\nColor space                              : YUV\nChroma subsampling                       : 4:2:2\nBit depth                                : 8 bits\nScan type                                : Interlaced\nScan order                               : Top Field First\nCompression mode                         : Lossy\nBits/(Pixel*Frame)                       : 0.248\nTime code of first frame                 : 08:59:24:14\nTime code source                         : Group of pictures header\nStream size                              : 8.26 GiB (92%)\n\nAudio\nID                                       : 256 (0x100)\nMenu ID                                  : 1 (0x1)\nFormat                                   : MPEG Audio\nFormat version                           : Version 1\nFormat profile                           : Layer 2\nCodec ID                                 : 4\nDuration                                 : 1h 31mn\nBit rate mode                            : Constant\nBit rate                                 : 384 Kbps\nChannel count                            : 2 channels\nSampling rate                            : 48.0 KHz\nCompression mode                         : Lossy\nDelay relative to video                  : -812ms\nStream size                              : 252 MiB (3%)\nLanguage                                 : English\n\nMenu\nID                                       : 32 (0x20)\nMenu ID                                  : 1 (0x1)\nDuration                                 : 1h 31mn\nList                                     : 308 (0x134) (MPEG Video) / 256 (0x100) (MPEG Audio, English)\nLanguage                                 :  / English\nMaximum bit rate                         : 14441200\n\n","torrent":{"xt":"urn:btih:e4f2016b6de94e4df98415863e500188e062d033","amp;dn":"Linkin+Park+Live+at+Rock+in+Rio+Lisbon+2012+1080i+HDTV+MPEG2+EFO","amp;tr":["udp%3A%2F%2Ftracker.openbittorrent.com%3A80","udp%3A%2F%2Fopen.demonii.com%3A1337","udp%3A%2F%2Ftracker.coppersurfer.tk%3A6969","udp%3A%2F%2Fexodus.desync.com%3A6969"],"infoHash":"e4f2016b6de94e4df98415863e500188e062d033","infoHashBuffer":{"type":"Buffer","data":[228,242,1,107,109,233,78,77,249,132,21,134,62,80,1,136,224,98,208,51]},"announce":[],"urlList":[]}}